<?xml version="1.0" standalone="no"?>
<!DOCTYPE svg PUBLIC "-//W3C//DTD SVG 20010904//EN"
 "http://www.w3.org/TR/2001/REC-SVG-20010904/DTD/svg10.dtd">
<svg version="1.0" xmlns="http://www.w3.org/2000/svg"
 width="128.000000pt" height="128.000000pt" viewBox="0 0 128.000000 128.000000"
 preserveAspectRatio="xMidYMid meet">

<g transform="translate(0.000000,128.000000) scale(0.100000,-0.100000)"
fill="#000000" stroke="none">
<path d="M477 875 c-274 -279 -295 -306 -236 -313 13 -2 110 15 213 38 215 46
233 47 284 21 53 -27 85 -75 89 -136 5 -60 -17 -105 -72 -150 -35 -28 -41 -30
-123 -29 -108 1 -177 26 -268 95 -95 72 -111 64 -77 -37 53 -158 181 -244 362
-244 330 1 532 342 374 632 -58 107 -183 191 -305 205 -27 3 -48 9 -48 12 0 6
23 46 72 131 l20 35 -25 -30 c-37 -43 -80 -124 -74 -139 3 -7 29 -16 59 -19
116 -14 249 -114 306 -231 99 -199 8 -443 -205 -548 -64 -31 -73 -33 -178 -33
-100 0 -115 2 -167 28 -73 36 -150 119 -177 192 -20 53 -26 85 -17 85 3 0 34
-22 69 -49 86 -64 176 -95 282 -95 58 -1 89 4 112 17 85 46 117 160 71 247
-27 51 -90 90 -144 90 -17 0 -115 -18 -218 -40 -200 -43 -221 -46 -232 -29 -4
6 97 115 238 258 200 201 307 317 286 310 -2 -1 -124 -124 -271 -274z"/>
<path d="M436 751 c-61 -62 -65 -78 -22 -86 67 -13 111 29 104 99 -5 46 -28
42 -82 -13z m74 -2 c0 -53 -82 -106 -106 -68 -7 13 85 111 98 103 4 -3 8 -19
8 -35z"/>
</g>
</svg>
